<svg id="ic_date" xmlns="http://www.w3.org/2000/svg" width="17" height="17" viewBox="0 0 17 17">
  <path id="Path_258" data-name="Path 258" d="M16.221.708H12.75a.708.708,0,0,0-1.417,0H5.667A.669.669,0,0,0,4.958,0,.669.669,0,0,0,4.25.708H.779A.786.786,0,0,0,0,1.487V16.221A.786.786,0,0,0,.779,17H16.221A.786.786,0,0,0,17,16.221V1.487A.786.786,0,0,0,16.221.708Zm-.637,14.875H1.417V5.667H15.583Zm0-10.625H1.417V2.125H4.25v.708a.669.669,0,0,0,.708.708.669.669,0,0,0,.708-.708V2.125h5.667v.708a.708.708,0,0,0,1.417,0V2.125h2.833Z" fill="#faebd7"/>
  <rect id="Rectangle_282" data-name="Rectangle 282" width="4" height="4" rx="1" transform="translate(10 9)" fill="#faebd7"/>
</svg>
