<svg xmlns="http://www.w3.org/2000/svg" width="14.126" height="14.126" viewBox="0 0 14.126 14.126">
  <path id="ic_search" d="M-328.581-9736.165l-2.275-2.277a6.353,6.353,0,0,1-3.754,1.223,6.4,6.4,0,0,1-6.389-6.392A6.4,6.4,0,0,1-334.61-9750a6.4,6.4,0,0,1,6.389,6.389,6.358,6.358,0,0,1-1.221,3.754l2.276,2.277a1,1,0,0,1,0,1.415.994.994,0,0,1-.707.291A1,1,0,0,1-328.581-9736.165ZM-339-9743.611a4.394,4.394,0,0,0,4.39,4.39,4.375,4.375,0,0,0,3.05-1.235c.016-.019.033-.036.05-.054s.036-.034.054-.051a4.373,4.373,0,0,0,1.235-3.05,4.4,4.4,0,0,0-4.39-4.39A4.4,4.4,0,0,0-339-9743.611Z" transform="translate(340.999 9750)" fill="#faebd7"/>
</svg>
